<?xml version="1.0" encoding="iso-8859-1"?>
<!-- Generator: Adobe Illustrator 19.0.0, SVG Export Plug-In . SVG Version: 6.00 Build 0)  -->
<svg version="1.1" id="Capa_1" xmlns="http://www.w3.org/2000/svg" xmlns:xlink="http://www.w3.org/1999/xlink" x="0px" y="0px"
	 viewBox="0 0 512 512" style="enable-background:new 0 0 512 512;" xml:space="preserve">
<g>
	<g>
		<path d="M341.225,70.089c-26.651,0-48.333,21.683-48.333,48.334s21.681,48.333,48.333,48.333
			c26.651,0,48.333-21.682,48.333-48.333S367.876,70.089,341.225,70.089z M341.225,136.756c-10.108,0-18.333-8.225-18.333-18.333
			c0-10.11,8.224-18.334,18.333-18.334c10.108,0,18.333,8.225,18.333,18.334C359.558,128.531,351.333,136.756,341.225,136.756z"/>
	</g>
</g>
<g>
	<g>
		<path d="M497,198.742h-56.568c10.482-29.09,15.788-56.032,15.788-80.322c0-63.367-51.589-114.92-115-114.92
			s-115,51.553-115,114.92c0,24.289,5.306,51.23,15.789,80.322H15c-8.284,0-15,6.716-15,15V493.5c0,8.284,6.716,15,15,15
			c15.141,0,474.611,0,482,0c8.284,0,15-6.716,15-15V213.742C512,205.458,505.284,198.742,497,198.742z M341.22,33.5
			c46.869,0,85,38.095,85,84.92c0,25.921-7.274,55.999-21.621,89.399c-19.582,45.561-47.767,86.367-63.384,107.317
			c-23.965-32.127-47.538-70.474-63.373-107.317c-0.001-0.001-0.001-0.003-0.002-0.004c-14.345-33.401-21.62-63.478-21.62-89.395
			C256.22,71.595,294.351,33.5,341.22,33.5z M30,228.742h111.243l78.214,138.487H30V228.742z M30,478.5v-81.27h206.4l45.899,81.27
			H30z M482,478.5H316.753c-5.732-10.149-137.459-243.387-141.057-249.758h78.611c18.163,39.648,46.152,84.363,73.737,118.425
			c15.192,18.817,29.24-3.592,27.154-0.998c26.747-33.271,54.554-77.269,72.934-117.427H482V478.5z"/>
	</g>
</g>
<g>
</g>
<g>
</g>
<g>
</g>
<g>
</g>
<g>
</g>
<g>
</g>
<g>
</g>
<g>
</g>
<g>
</g>
<g>
</g>
<g>
</g>
<g>
</g>
<g>
</g>
<g>
</g>
<g>
</g>
</svg>
